Coordinates
version=1
nRows=16
nColumns=40
inDegrees=yes

Units are S.I. units (second, meters, Newtons, ...)
Angles are in degrees.

endheader
time	pelvis_tilt	pelvis_list	pelvis_rotation	pelvis_tx	pelvis_ty	pelvis_tz	hip_flexion_r	hip_adduction_r	hip_rotation_r	knee_angle_r	knee_angle_r_beta	ankle_angle_r	subtalar_angle_r	mtp_angle_r	hip_flexion_l	hip_adduction_l	hip_rotation_l	knee_angle_l	knee_angle_l_beta	ankle_angle_l	subtalar_angle_l	mtp_angle_l	lumbar_extension	lumbar_bending	lumbar_rotation	arm_flex_r	arm_add_r	arm_rot_r	elbow_flex_r	pro_sup_r	wrist_flex_r	wrist_dev_r	arm_flex_l	arm_add_l	arm_rot_l	elbow_flex_l	pro_sup_l	wrist_flex_l	wrist_dev_l
     11.22778571	     -5.57296708	     -5.11537166	      2.71956424	      0.96927337	      0.92392964	      0.46788920	     -0.32842192	      5.77451419	    -19.52700507	      9.58909007	      9.58909007	     16.61004611	     10.39962420	     -1.21510638	     31.15661045	     -6.20806998	     -5.61946031	     17.55317492	     17.55317492	      3.44706566	    -10.67116564	     10.20331099	     -8.01001637	      8.59899718	      5.13001970	     37.10638390	    -16.07139134	     -3.95244738	     92.61996928	     44.52668619	      0.00000000	      0.00000000	    -12.51518953	     -7.12898740	      5.62912635	     27.02954717	     44.65168646	      0.00000000	      0.00000000
     11.24057143	     -5.51717909	     -4.97669026	      2.43981982	      0.96988047	      0.92294416	      0.46698101	     -0.90527994	      5.53053119	    -19.23522041	      9.76984862	      9.76984862	     17.08302487	     10.42112605	     -1.29090503	     30.59765876	     -6.03762366	     -5.55402965	     18.35005022	     18.35005022	      3.10066712	    -11.20162983	     10.12909798	     -7.92528922	      8.36702975	      5.00602371	     36.33909067	    -15.97068210	     -3.86106959	     92.68266370	     44.52226042	      0.00000000	      0.00000000	    -12.45765646	     -7.22291440	      5.64171223	     27.12694817	     44.65458900	      0.00000000	      0.00000000
     11.25335714	     -5.62222698	     -4.92825290	      2.16388174	      0.97031634	      0.92171946	      0.46595978	     -1.12532530	      5.31986221	    -18.87368520	     10.27341817	     10.27341817	     17.64771140	     10.21756888	     -1.10225110	     30.29361110	     -5.82186920	     -4.83806539	     19.10510247	     19.10510247	      2.42221534	    -12.73502372	      9.68978694	     -7.72787354	      8.24200774	      5.13507663	     35.13278740	    -16.30302426	     -3.97205736	     93.59564204	     44.50829757	      0.00000000	      0.00000000	    -12.28905382	     -7.31990290	      5.66671604	     27.70639114	     44.67057059	      0.00000000	      0.00000000
     11.26614286	     -5.64099121	     -4.82007253	      1.88219697	      0.97085483	      0.92082523	      0.46491514	     -1.47609147	      5.05181838	    -18.49524453	     10.70941911	     10.70941911	     18.14260568	     10.03732273	     -0.90322516	     29.90429446	     -5.63511138	     -4.47208995	     19.80054909	     19.80054909	      2.00757919	    -13.72199386	      9.09629905	     -7.62647392	      8.02152082	      5.25165812	     33.77843102	    -16.57979859	     -4.21391749	     94.07565815	     44.51363934	      0.00000000	      0.00000000	    -11.94200549	     -7.47281721	      5.70378148	     28.15546394	     44.69097745	      0.00000000	      0.00000000
     11.27892857	     -5.56732826	     -4.66402927	      1.62710719	      0.97147709	      0.92034821	      0.46375673	     -2.00420337	      4.74064070	    -18.21007722	     10.97741948	     10.97741948	     18.40389318	      9.99778610	     -0.95134337	     29.47204589	     -5.46242929	     -4.35951487	     20.52273910	     20.52273910	      2.09606774	    -14.19301312	      8.87790967	     -7.63104075	      7.76389637	      4.95616625	     32.60841434	    -16.42709162	     -4.10651439	     93.85430777	     44.51531691	      0.00000000	      0.00000000	    -11.60578496	     -7.57018237	      5.69543314	     28.29632913	     44.70090090	      0.00000000	      0.00000000
     11.29171429	     -5.52531985	     -4.53992365	      1.40404566	      0.97198413	      0.92005395	      0.46244442	     -2.40679418	      4.42377416	    -17.92042051	     11.39664004	     11.39664004	     18.62605729	      9.87636881	     -1.01197142	     29.17087173	     -5.29694224	     -4.15735758	     21.29093062	     21.29093062	      2.31718192	    -14.81674026	      8.61414780	     -7.62713815	      7.53880849	      4.69970555	     31.25960507	    -16.39660720	     -4.04728642	     93.49038849	     44.52251035	      0.00000000	      0.00000000	    -11.12859375	     -7.67008866	      5.66021985	     28.52680839	     44.71712348	      0.00000000	      0.00000000
     11.30450000	     -5.69775727	     -4.43290771	      1.15740109	      0.97218546	      0.91968443	      0.46094945	     -2.25913474	      4.01558690	    -17.53758443	     12.38305333	     12.38305333	     18.90913958	      9.41904907	     -1.08610620	     29.16424458	     -5.09279265	     -3.77332874	     22.04656953	     22.04656953	      2.50620323	    -15.84163104	      8.36367852	     -7.40005819	      7.33857143	      5.01850528	     29.50974479	    -16.97019107	     -4.50903998	     92.86151321	     44.56143800	      0.00000000	      0.00000000	    -10.37031565	     -7.81251573	      5.50973957	     29.05801701	     44.76427475	      0.00000000	      0.00000000
     11.31728571	     -5.72637783	     -4.27622102	      0.96136804	      0.97249348	      0.91991041	      0.45920084	     -2.34106955	      3.54870877	    -17.30454841	     13.22203813	     13.22203813	     19.06192543	      9.19257136	     -1.19657083	     28.94659523	     -4.86288211	     -3.63323799	     22.67163513	     22.67163513	      2.92824524	    -16.42004777	      8.28295600	     -7.35710802	      7.13971015	      5.07197236	     27.71128161	    -17.19263344	     -4.90670631	     92.07181933	     44.60207741	      0.00000000	      0.00000000	     -9.57040352	     -7.88802179	      5.36058580	     29.51194904	     44.81097942	      0.00000000	      0.00000000
     11.33007143	     -5.63339324	     -4.21395559	      0.80649026	      0.97296271	      0.92062674	      0.45738701	     -2.64616328	      3.19100225	    -17.12150733	     13.86664601	     13.86664601	     18.95885338	      9.15587817	     -1.27808506	     28.52677354	     -4.73109217	     -3.51787947	     23.16554598	     23.16554598	      3.56107023	    -16.82910781	      8.10245489	     -7.50556793	      7.02241041	      4.70924752	     26.01545906	    -17.03310367	     -4.86192057	     91.33731008	     44.61992998	      0.00000000	      0.00000000	     -8.92713972	     -8.00912338	      5.27740967	     29.80563333	     44.83665082	      0.00000000	      0.00000000
     11.34285714	     -5.81259376	     -4.00241924	      0.58718943	      0.97310289	      0.92114943	      0.45524763	     -2.18624310	      2.44299281	    -17.11961673	     15.40585789	     15.40585789	     18.92353028	      9.23363351	     -2.01317481	     28.41120111	     -4.41492750	     -3.45859432	     23.68025387	     23.68025387	      4.64561539	    -17.15478187	      9.42010879	     -7.30003788	      6.76359733	      5.16205775	     23.96544271	    -17.11883501	     -6.50135842	     89.31380191	     44.75503333	      0.00000000	      0.00000000	     -7.98486755	     -8.08017035	      4.58751886	     30.71937755	     44.98569231	      0.00000000	      0.00000000
     11.35564286	     -5.85316473	     -3.88825181	      0.37666199	      0.97339811	      0.92205582	      0.45306060	     -1.91075156	      1.81931278	    -16.98734459	     16.85137881	     16.85137881	     18.74580593	      9.18851817	     -2.51142633	     28.02371029	     -4.23219355	     -3.57321238	     23.96968966	     23.96968966	      5.35275197	    -17.31221179	      9.52019997	     -7.28249270	      6.64512625	      5.30906510	     22.00004475	    -17.47882661	     -6.58126883	     87.60198021	     44.81155239	      0.00000000	      0.00000000	     -7.09014264	     -8.15365370	      4.29205063	     31.40111574	     45.05027184	      0.00000000	      0.00000000
     11.36842857	     -5.92411537	     -3.78079829	      0.16711034	      0.97366812	      0.92300430	      0.45073492	     -1.42289084	      1.10384085	    -16.94965813	     18.62494669	     18.62494669	     18.41969719	      9.24526185	     -3.40284364	     27.58153359	     -4.02882023	     -3.68774220	     24.10744623	     24.10744623	      6.09215060	    -17.44428336	      9.85019507	     -7.21193409	      6.57260079	      5.43786439	     20.09503564	    -17.61184755	     -6.99454068	     85.35367806	     44.89731708	      0.00000000	      0.00000000	     -6.26799148	     -8.21770754	      3.83168243	     32.38691871	     45.13748815	      0.00000000	      0.00000000
     11.38121429	     -5.97420888	     -3.66578802	     -0.04654310	      0.97394900	      0.92403713	      0.44836406	     -0.87649564	      0.33163747	    -16.92064610	     20.47149454	     20.47149454	     17.39865249	      9.25532016	     -5.98569363	     27.07970738	     -3.80002086	     -3.78973836	     24.21429892	     24.21429892	      7.11378286	    -17.47284662	     10.95911874	     -7.17598280	      6.45273954	      5.16837469	     18.81879630	    -16.93621308	     -8.09980620	     81.75863866	     45.06191698	      0.00000000	      0.00000000	     -6.01279072	     -8.28054252	      2.48416211	     34.43737001	     45.35303237	      0.00000000	      0.00000000
     11.39400000	     -6.02642653	     -3.56325158	     -0.29605867	      0.97417023	      0.92498738	      0.44607422	     -0.10886764	     -0.44752992	    -16.61524115	     22.63829501	     22.63829501	     16.01079628	      8.72424722	     -9.30123452	     26.48489703	     -3.62062131	     -4.04714404	     24.13945388	     24.13945388	      7.78966433	    -17.39863141	     11.16780549	     -7.14721584	      6.36031024	      4.92693606	     17.51492941	    -16.72113743	     -8.18287748	     78.37785900	     45.18497512	      0.00000000	      0.00000000	     -5.75045170	     -8.32522869	      0.91799896	     36.54642158	     45.59092111	      0.00000000	      0.00000000
     11.40678571	     -6.07833035	     -3.50442930	     -0.55494554	      0.97434925	      0.92581958	      0.44380235	      0.90243106	     -1.23241009	    -16.19857434	     25.22671613	     25.22671613	     14.55922912	      7.95571750	    -12.33240175	     25.83887907	     -3.49296913	     -4.35867224	     23.96835387	     23.96835387	      8.22902477	    -17.32427025	     10.80659010	     -7.10759818	      6.33774968	      4.86608759	     16.07856812	    -16.57777653	     -8.42771487	     74.92491671	     45.30863081	      0.00000000	      0.00000000	     -5.32663927	     -8.41461607	     -0.19765120	     38.60551277	     45.75981507	      0.00000000	      0.00000000
     11.41957143	     -6.10221778	     -3.38307887	     -0.84070778	      0.97442712	      0.92654897	      0.44151027	      2.24342492	     -2.19391389	    -15.71385487	     28.50763225	     28.50763225	     13.59763912	      7.28165714	    -13.39477829	     25.13800025	     -3.31682468	     -4.79850438	     23.75752698	     23.75752698	      8.69982410	    -17.13502034	     10.52067823	     -7.18019639	      6.31066909	      5.12954100	     14.11655225	    -16.79788906	     -8.37827399	     72.88417409	     45.36697921	      0.00000000	      0.00000000	     -4.37625335	     -8.56542197	     -0.52377346	     39.71772548	     45.81746095	      0.00000000	      0.00000000
